<svg width="24" height="25" viewBox="0 0 24 25" fill="none" xmlns="http://www.w3.org/2000/svg">
<path d="M1.5 4.81362H22.4858C22.8997 4.81362 23.2358 4.47762 23.2358 4.06362C23.2358 3.64962 22.8997 3.31362 22.4858 3.31362H1.5C1.086 3.31362 0.75 3.64962 0.75 4.06362C0.75 4.47762 1.086 4.81362 1.5 4.81362Z" fill="#05092E"/>
<path d="M22.4857 11.75H1.5116C1.0976 11.75 0.761597 12.086 0.761597 12.5C0.761597 12.914 1.0976 13.25 1.5116 13.25H22.4857C22.8997 13.25 23.2357 12.914 23.2357 12.5C23.2357 12.086 22.8997 11.75 22.4857 11.75Z" fill="#05092E"/>
<path d="M22.5 20.1864H1.5116C1.0976 20.1864 0.761597 20.5224 0.761597 20.9364C0.761597 21.3504 1.0976 21.6864 1.5116 21.6864H22.5C22.914 21.6864 23.25 21.3504 23.25 20.9364C23.25 20.5224 22.914 20.1864 22.5 20.1864Z" fill="#05092E"/>
</svg>
