<svg width="64" height="64" viewBox="0 0 64 64" fill="none" xmlns="http://www.w3.org/2000/svg">
<path d="M56 14H46V8C46 6.4087 45.3679 4.88258 44.2426 3.75736C43.1174 2.63214 41.5913 2 40 2H24C22.4087 2 20.8826 2.63214 19.7574 3.75736C18.6321 4.88258 18 6.4087 18 8V14H8C6.4087 14 4.88258 14.6321 3.75736 15.7574C2.63214 16.8826 2 18.4087 2 20V56C2 57.5913 2.63214 59.1174 3.75736 60.2426C4.88258 61.3679 6.4087 62 8 62H56C57.5913 62 59.1174 61.3679 60.2426 60.2426C61.3679 59.1174 62 57.5913 62 56V20C62 18.4087 61.3679 16.8826 60.2426 15.7574C59.1174 14.6321 57.5913 14 56 14ZM22 8C22 7.46957 22.2107 6.96086 22.5858 6.58579C22.9609 6.21071 23.4696 6 24 6H40C40.5304 6 41.0391 6.21071 41.4142 6.58579C41.7893 6.96086 42 7.46957 42 8V14H22V8ZM8 18H56C56.5304 18 57.0391 18.2107 57.4142 18.5858C57.7893 18.9609 58 19.4696 58 20V36H6V20C6 19.4696 6.21071 18.9609 6.58579 18.5858C6.96086 18.2107 7.46957 18 8 18ZM28 40H36V44H28V40ZM56 58H8C7.46957 58 6.96086 57.7893 6.58579 57.4142C6.21071 57.0391 6 56.5304 6 56V40H24V46C24 46.5304 24.2107 47.0391 24.5858 47.4142C24.9609 47.7893 25.4696 48 26 48H38C38.5304 48 39.0391 47.7893 39.4142 47.4142C39.7893 47.0391 40 46.5304 40 46V40H58V56C58 56.5304 57.7893 57.0391 57.4142 57.4142C57.0391 57.7893 56.5304 58 56 58Z" fill="#00CED1"/>
</svg>
