<svg width="29" height="30" viewBox="0 0 29 30" fill="none" xmlns="http://www.w3.org/2000/svg">
<path d="M12.3338 21.4926L22.5952 11.2311L20.9868 9.62279L12.3338 18.2759L7.98378 13.9259L6.37542 15.5342L12.3338 21.4926ZM14.5027 29.5C12.4971 29.5 10.612 29.1194 8.84729 28.3583C7.08261 27.5972 5.54765 26.5643 4.24239 25.2595C2.93714 23.9548 1.9037 22.4204 1.14207 20.6565C0.380688 18.8926 0 17.008 0 15.0027C0 12.9971 0.380561 11.112 1.14168 9.34729C1.90281 7.58261 2.93574 6.04765 4.24049 4.74239C5.54523 3.43714 7.07956 2.4037 8.84347 1.64207C10.6074 0.880688 12.492 0.5 14.4973 0.5C16.5029 0.5 18.388 0.880561 20.1527 1.64168C21.9174 2.40281 23.4524 3.43574 24.7576 4.74049C26.0629 6.04523 27.0963 7.57956 27.8579 9.34347C28.6193 11.1074 29 12.992 29 14.9973C29 17.0029 28.6194 18.888 27.8583 20.6527C27.0972 22.4174 26.0643 23.9524 24.7595 25.2576C23.4548 26.5629 21.9204 27.5963 20.1565 28.3579C18.3926 29.1193 16.508 29.5 14.5027 29.5Z" fill="#00CED1"/>
</svg>
