<svg width="32" height="32" viewBox="0 0 32 32" fill="none" xmlns="http://www.w3.org/2000/svg">
<path fill-rule="evenodd" clip-rule="evenodd" d="M6.06105 25.9387C5.20356 25.0812 4.46829 24.1243 3.86649 23.095L3.78896 22.9608C3.16011 21.8576 2.68331 20.6736 2.37213 19.4416L4.69168 18.1023C4.56574 17.4208 4.49993 16.718 4.49993 15.9999C4.49993 15.2818 4.56574 14.579 4.69168 13.8973L2.37213 12.5582C2.68346 11.3256 3.16056 10.1411 3.78985 9.03742L3.86557 8.90627C4.46755 7.87647 5.20312 6.91904 6.06105 6.06112C6.10892 6.01325 6.15709 5.96577 6.20555 5.91869L8.52674 7.25882C9.58975 6.34913 10.8207 5.62997 12.1666 5.15427V2.47711C13.4029 2.12661 14.6919 1.94434 15.9999 1.94434C17.3078 1.94434 18.5969 2.12664 19.8332 2.47716V5.15427C21.1792 5.63 22.4102 6.34917 23.4732 7.2589L25.7943 5.91883C25.8427 5.96587 25.8908 6.0133 25.9387 6.06112C27.747 7.86948 29.0117 10.1199 29.6276 12.5584L27.3082 13.8974C27.4341 14.5791 27.4999 15.2818 27.4999 15.9999C27.4999 16.718 27.4341 17.4207 27.3082 18.1023L29.6276 19.4415C29.0117 21.8798 27.747 24.1303 25.9387 25.9387C25.8908 25.9865 25.8427 26.0339 25.7943 26.0809L23.4732 24.7409C22.4102 25.6506 21.1792 26.3698 19.8332 26.8455V29.5226C18.5969 29.8731 17.3078 30.0554 15.9999 30.0554C14.6919 30.0554 13.4029 29.8731 12.1666 29.5226V26.8455C10.8207 26.3698 9.58975 25.6507 8.52673 24.7409L6.20554 26.081C6.15708 26.034 6.10892 25.9865 6.06105 25.9387Z" stroke="#05092E" stroke-width="2"/>
<path d="M16 19.8332C18.1171 19.8332 19.8333 18.117 19.8333 15.9998C19.8333 13.8827 18.1171 12.1665 16 12.1665C13.8828 12.1665 12.1666 13.8827 12.1666 15.9998C12.1666 18.117 13.8828 19.8332 16 19.8332Z" stroke="#05092E" stroke-width="2"/>
</svg>
