<svg width="64" height="64" viewBox="0 0 64 64" fill="none" xmlns="http://www.w3.org/2000/svg">
<path d="M60 2H50C49.4696 2 48.9609 2.21071 48.5858 2.58579C48.2108 2.96086 48 3.46957 48 4C48 4.53043 48.2108 5.03914 48.5858 5.41421C48.9609 5.78929 49.4696 6 50 6H55.18L32.92 28.24L30 18.56C29.8982 18.2342 29.7146 17.9399 29.4668 17.7052C29.2191 17.4704 28.9153 17.3029 28.5845 17.2187C28.2538 17.1345 27.9069 17.1364 27.5771 17.2241C27.2472 17.3119 26.9453 17.4826 26.7 17.72L7.12004 36.56C6.93258 36.7459 6.78379 36.9671 6.68226 37.2108C6.58072 37.4546 6.52844 37.716 6.52844 37.98C6.52844 38.244 6.58072 38.5054 6.68226 38.7492C6.78379 38.9929 6.93258 39.2141 7.12004 39.4C7.30762 39.5914 7.53176 39.7431 7.77913 39.8462C8.0265 39.9493 8.29206 40.0016 8.56004 40C8.82521 40.0068 9.08908 39.9608 9.3363 39.8647C9.58352 39.7685 9.80914 39.6242 10 39.44L27.16 22.84L30.2 32.6C30.3025 32.9261 30.4868 33.2205 30.7354 33.455C30.984 33.6896 31.2886 33.8566 31.62 33.94C31.9692 34.0436 32.3399 34.05 32.6924 33.9583C33.0449 33.8667 33.3656 33.6805 33.62 33.42L58 8.82V14C58 14.5304 58.2108 15.0391 58.5858 15.4142C58.9609 15.7893 59.4696 16 60 16C60.5305 16 61.0392 15.7893 61.4143 15.4142C61.7893 15.0391 62 14.5304 62 14V4C62 3.46957 61.7893 2.96086 61.4143 2.58579C61.0392 2.21071 60.5305 2 60 2Z" fill="#00CED1"/>
<path d="M14 46H4C3.46957 46 2.96086 46.2107 2.58579 46.5858C2.21071 46.9609 2 47.4696 2 48V60C2 60.5304 2.21071 61.0391 2.58579 61.4142C2.96086 61.7893 3.46957 62 4 62H14C14.5304 62 15.0391 61.7893 15.4142 61.4142C15.7893 61.0391 16 60.5304 16 60V48C16 47.4696 15.7893 46.9609 15.4142 46.5858C15.0391 46.2107 14.5304 46 14 46ZM12 58H6V50H12V58Z" fill="#00CED1"/>
<path d="M36.9399 38H26.9399C26.4095 38 25.9008 38.2107 25.5257 38.5858C25.1507 38.9609 24.9399 39.4696 24.9399 40V60C24.9399 60.5304 25.1507 61.0391 25.5257 61.4142C25.9008 61.7893 26.4095 62 26.9399 62H36.9399C37.4704 62 37.9791 61.7893 38.3542 61.4142C38.7292 61.0391 38.9399 60.5304 38.9399 60V40C38.9399 39.4696 38.7292 38.9609 38.3542 38.5858C37.9791 38.2107 37.4704 38 36.9399 38ZM34.9399 58H28.9399V42H34.9399V58Z" fill="#00CED1"/>
<path d="M60 30H50C49.4696 30 48.9609 30.2107 48.5858 30.5858C48.2107 30.9609 48 31.4696 48 32V60C48 60.5304 48.2107 61.0391 48.5858 61.4142C48.9609 61.7893 49.4696 62 50 62H60C60.5304 62 61.0391 61.7893 61.4142 61.4142C61.7893 61.0391 62 60.5304 62 60V32C62 31.4696 61.7893 30.9609 61.4142 30.5858C61.0391 30.2107 60.5304 30 60 30ZM58 58H52V34H58V58Z" fill="#00CED1"/>
</svg>
