<svg width="48" height="48" viewBox="0 0 48 48" fill="none" xmlns="http://www.w3.org/2000/svg">
<g clip-path="url(#clip0_1_565)">
<path d="M48 48H0V0H48V48ZM23.998 6.5459C19.2603 6.54591 18.6651 6.56666 16.8037 6.65137C14.9457 6.73647 13.6771 7.03029 12.5674 7.46191C11.4195 7.90772 10.4457 8.50413 9.47559 9.47461C8.50476 10.4448 7.90818 11.4188 7.46094 12.5664C7.02828 13.6765 6.73402 14.9454 6.65039 16.8027C6.56713 18.6644 6.54492 19.2598 6.54492 24C6.54492 28.7404 6.56603 29.3335 6.65039 31.1953C6.73584 33.0535 7.03065 34.3218 7.46191 35.4316C7.90806 36.5796 8.50419 37.5533 9.47461 38.5234C10.4444 39.4943 11.4182 40.0923 12.5654 40.5381C13.6759 40.9697 14.945 41.2635 16.8027 41.3486C18.6643 41.4333 19.2594 41.4541 23.999 41.4541C28.7392 41.4541 29.3326 41.4334 31.1943 41.3486C33.0522 41.2635 34.3222 40.9697 35.4326 40.5381C36.5801 40.0923 37.5527 39.4943 38.5225 38.5234C39.4932 37.5533 40.0889 36.5792 40.5361 35.4316C40.9652 34.3215 41.2604 33.0527 41.3477 31.1953C41.4313 29.3338 41.4531 28.7401 41.4531 24C41.4531 19.2597 41.4313 18.6646 41.3477 16.8027C41.2604 14.9447 40.9652 13.6762 40.5361 12.5664C40.0889 11.4186 39.4931 10.4446 38.5225 9.47461C37.5517 8.50379 36.5806 7.90735 35.4316 7.46191C34.3189 7.03028 33.0495 6.73646 31.1914 6.65137C29.33 6.56666 28.7372 6.54591 23.998 6.5459ZM22.4346 9.69141C22.8993 9.69068 23.4184 9.69141 24.001 9.69141C28.661 9.69141 29.2134 9.70738 31.0537 9.79102C32.7552 9.86883 33.6787 10.1537 34.2939 10.3926C35.1085 10.7089 35.6893 11.0873 36.2998 11.6982C36.9106 12.3091 37.2894 12.8906 37.6064 13.7051C37.8453 14.3196 38.1296 15.2436 38.207 16.9453C38.2907 18.7852 38.3086 19.3381 38.3086 23.9961C38.3086 28.6542 38.2907 29.2069 38.207 31.0469C38.1292 32.7487 37.8453 33.6726 37.6064 34.2871C37.2901 35.1016 36.9107 35.6815 36.2998 36.292C35.6889 36.9029 35.1088 37.2813 34.2939 37.5977C33.6794 37.8376 32.7551 38.1214 31.0537 38.1992C29.2138 38.2829 28.661 38.3008 24.001 38.3008C19.3407 38.3008 18.7879 38.2828 16.9482 38.1992C15.2465 38.1207 14.3226 37.8356 13.707 37.5967C12.8925 37.2803 12.3101 36.9029 11.6992 36.292C11.0884 35.6811 10.7106 35.1 10.3936 34.2852C10.1547 33.6707 9.86946 32.7472 9.79199 31.0459C9.70836 29.2059 9.69238 28.6523 9.69238 23.9912C9.69238 19.3305 9.70836 18.7804 9.79199 16.9404C9.86982 15.2389 10.1547 14.3154 10.3936 13.7002C10.7099 12.8857 11.0883 12.3033 11.6992 11.6924C12.3101 11.0815 12.8925 10.7038 13.707 10.3867C14.3223 10.1467 15.2466 9.86333 16.9482 9.78516C18.558 9.71245 19.1822 9.69016 22.4346 9.68652V9.69141ZM24 15.0361C19.0503 15.0365 15.0371 19.0501 15.0371 24C15.0371 28.9502 19.0509 32.9619 24.001 32.9619C28.9509 32.9618 32.9629 28.9501 32.9629 24C32.9629 19.0498 28.95 15.0361 24 15.0361ZM24.001 18.1816C27.2139 18.1818 29.8184 20.7866 29.8184 24C29.8184 27.213 27.2139 29.8182 24.001 29.8184C20.7876 29.8184 18.1826 27.2131 18.1826 24C18.1826 20.7866 20.7876 18.1816 24.001 18.1816ZM33.1035 12.5996C32.0477 12.7067 31.2228 13.5983 31.2227 14.6826C31.2227 15.8389 32.1611 16.7773 33.3174 16.7773C34.4737 16.7773 35.4121 15.839 35.4121 14.6826C35.4119 13.5264 34.4736 12.5889 33.3174 12.5889L33.1035 12.5996Z" fill="#00CED1"/>
</g>
<defs>
<clipPath id="clip0_1_565">
<rect width="48" height="48" rx="12" fill="white"/>
</clipPath>
</defs>
</svg>
