<svg width="48" height="48" viewBox="0 0 48 48" fill="none" xmlns="http://www.w3.org/2000/svg">
<g clip-path="url(#clip0_1_569)">
<path d="M48 48H0V0H48V48ZM7.14355 17.9844V40.8564H14.4033V17.9844H7.14355ZM32.6201 17.4004C27.525 17.4005 25.6523 21.1455 25.6523 21.1455V17.9844H18.751V40.8564H26.0107V28.7334C26.0107 26.6713 26.593 23.7393 29.9922 23.7393C31.6301 23.7393 33.7793 24.1819 33.7793 28.208V40.8564H40.9307V26.4639C40.9306 19.639 37.1654 17.4004 32.6201 17.4004ZM10.7734 6.5791C8.47404 6.5793 6.6096 8.44279 6.60938 10.7422C6.60938 13.0418 8.4739 14.9061 10.7734 14.9062C13.0731 14.9062 14.9375 13.0419 14.9375 10.7422C14.9373 8.44267 13.073 6.5791 10.7734 6.5791Z" fill="#00CED1"/>
</g>
<defs>
<clipPath id="clip0_1_569">
<rect width="48" height="48" rx="12" fill="white"/>
</clipPath>
</defs>
</svg>
