<svg width="62" height="62" viewBox="0 0 62 62" fill="none" xmlns="http://www.w3.org/2000/svg">
<rect width="62" height="62" rx="31" fill="#00CED1" fill-opacity="0.08"/>
<path d="M25.8333 18.9443C26.7469 18.9443 27.623 19.3072 28.2689 19.9532C28.9149 20.5991 29.2778 21.4753 29.2778 22.3888V32.7221C29.2778 38.1127 26.4361 41.6656 21.0852 43.0038C20.8652 43.0606 20.6361 43.0733 20.4112 43.0411C20.1863 43.009 19.97 42.9327 19.7747 42.8166C19.5794 42.7005 19.409 42.5469 19.2733 42.3646C19.1376 42.1824 19.0394 41.9751 18.9841 41.7547C18.9289 41.5343 18.9179 41.3052 18.9516 41.0805C18.9853 40.8558 19.0632 40.64 19.1807 40.4456C19.2982 40.2511 19.453 40.0818 19.6362 39.9475C19.8194 39.8131 20.0274 39.7163 20.2482 39.6627C24.0836 38.7034 25.8333 36.5162 25.8333 32.7221V30.9999H20.6667C19.7977 31.0002 18.9607 30.672 18.3235 30.0811C17.6863 29.4902 17.296 28.6803 17.2308 27.8138L17.2222 27.5554V22.3888C17.2222 21.4753 17.5851 20.5991 18.2311 19.9532C18.877 19.3072 19.7531 18.9443 20.6667 18.9443H25.8333ZM41.3333 18.9443C42.2469 18.9443 43.123 19.3072 43.7689 19.9532C44.4149 20.5991 44.7778 21.4753 44.7778 22.3888V32.7221C44.7778 38.1127 41.9361 41.6656 36.5852 43.0038C36.3652 43.0606 36.1361 43.0733 35.9112 43.0411C35.6863 43.009 35.47 42.9327 35.2747 42.8166C35.0794 42.7005 34.909 42.5469 34.7733 42.3646C34.6376 42.1824 34.5394 41.9751 34.4841 41.7547C34.4289 41.5343 34.4179 41.3052 34.4516 41.0805C34.4853 40.8558 34.5632 40.64 34.6807 40.4456C34.7982 40.2511 34.953 40.0818 35.1362 39.9475C35.3194 39.8131 35.5274 39.7163 35.7482 39.6627C39.5836 38.7034 41.3333 36.5162 41.3333 32.7221V30.9999H36.1667C35.2977 31.0002 34.4607 30.672 33.8235 30.0811C33.1863 29.4902 32.796 28.6803 32.7308 27.8138L32.7222 27.5554V22.3888C32.7222 21.4753 33.0851 20.5991 33.7311 19.9532C34.377 19.3072 35.2531 18.9443 36.1667 18.9443H41.3333Z" fill="#00CED1"/>
</svg>
