<svg width="64" height="64" viewBox="0 0 64 64" fill="none" xmlns="http://www.w3.org/2000/svg">
<path d="M61.36 4.11991C61.2741 3.76059 61.0903 3.43209 60.829 3.17085C60.5678 2.90961 60.2393 2.72583 59.88 2.63991C47.34 -0.380093 29.88 7.81991 20.16 17.4999C19.18 18.4799 18.28 19.4999 17.42 20.5399L14.54 19.2399C13.2907 18.6726 11.8984 18.4989 10.5481 18.7418C9.19769 18.9847 7.95322 19.6328 6.97999 20.5999L2.57999 24.9999C2.37902 25.2014 2.22338 25.4435 2.12346 25.71C2.02355 25.9765 1.98165 26.2612 2.00058 26.5452C2.01952 26.8292 2.09884 27.1058 2.23324 27.3567C2.36765 27.6076 2.55405 27.8268 2.77999 27.9999L9.99999 33.5999C9.69999 34.4999 9.39999 35.3999 9.15999 36.3199C9.05636 36.669 9.05003 37.0398 9.14166 37.3923C9.2333 37.7447 9.41944 38.0655 9.67999 38.3199L25.68 54.3199C25.8652 54.5089 26.0861 54.6592 26.3299 54.7622C26.5736 54.8652 26.8354 54.9188 27.1 54.9199C27.2727 54.9407 27.4473 54.9407 27.62 54.9199C28.54 54.6799 29.44 54.3799 30.34 54.0799L36 61.2199C36.1714 61.4442 36.3883 61.6296 36.6365 61.7641C36.8847 61.8985 37.1585 61.9789 37.44 61.9999H37.58C38.1047 61.9977 38.6075 61.7894 38.98 61.4199L43.38 57.0199C44.3471 56.0467 44.9952 54.8022 45.2381 53.4518C45.481 52.1015 45.3073 50.7092 44.74 49.4599L43.44 46.5799C44.48 45.7199 45.44 44.8199 46.48 43.8399C56.18 34.1599 64.38 16.6599 61.36 4.11991ZM57.72 6.27991C58.2473 10.562 57.8448 14.9075 56.54 19.0199L45 7.45991C49.1061 6.15793 53.4444 5.75547 57.72 6.27991ZM7.01999 26.2799L9.79999 23.4399C10.1932 23.0407 10.7001 22.7726 11.2513 22.6724C11.8026 22.5722 12.3714 22.6446 12.88 22.8799L14.88 23.7999C13.5978 25.7082 12.4677 27.7144 11.5 29.7999L7.01999 26.2799ZM41.02 51.1799C41.2553 51.6885 41.3277 52.2573 41.2275 52.8085C41.1273 53.3598 40.8592 53.8667 40.46 54.2599L37.68 57.0399L34.14 52.4999C36.2255 51.5322 38.2317 50.4021 40.14 49.1199L41.02 51.1799ZM27.64 50.7399L13.32 36.2599C15.1777 30.2144 18.4953 24.7193 22.98 20.2599C28.0834 15.288 34.1375 11.3971 40.78 8.81991L55.1 23.1399C52.5228 29.7824 48.6318 35.8365 43.66 40.9399C39.232 45.4425 33.7648 48.7873 27.74 50.6799L27.64 50.7399Z" fill="#00CED1"/>
<path d="M4 52.8599C4.26321 52.8614 4.52414 52.811 4.76781 52.7114C5.01149 52.6119 5.23312 52.4652 5.42 52.2799L12.28 45.4199C12.6566 45.0433 12.8682 44.5325 12.8682 43.9999C12.8682 43.4673 12.6566 42.9565 12.28 42.5799C11.9034 42.2033 11.3926 41.9917 10.86 41.9917C10.3274 41.9917 9.81661 42.2033 9.44 42.5799L2.58 49.4399C2.39254 49.6258 2.24375 49.847 2.14222 50.0907C2.04068 50.3344 1.9884 50.5959 1.9884 50.8599C1.9884 51.1239 2.04068 51.3853 2.14222 51.629C2.24375 51.8728 2.39254 52.094 2.58 52.2799C2.76688 52.4652 2.98851 52.6119 3.23219 52.7114C3.47586 52.811 3.73679 52.8614 4 52.8599Z" fill="#00CED1"/>
<path d="M18.58 51.72L11.72 58.58C11.5326 58.7659 11.3838 58.9871 11.2822 59.2309C11.1807 59.4746 11.1284 59.736 11.1284 60C11.1284 60.264 11.1807 60.5255 11.2822 60.7692C11.3838 61.0129 11.5326 61.2341 11.72 61.42C11.9069 61.6054 12.1285 61.752 12.3722 61.8516C12.6159 61.9511 12.8768 62.0015 13.14 62C13.4032 62.0015 13.6642 61.9511 13.9078 61.8516C14.1515 61.752 14.3731 61.6054 14.56 61.42L21.42 54.56C21.7966 54.1834 22.0082 53.6726 22.0082 53.14C22.0082 52.6074 21.7966 52.0966 21.42 51.72C21.0434 51.3434 20.5326 51.1318 20 51.1318C19.4674 51.1318 18.9566 51.3434 18.58 51.72Z" fill="#00CED1"/>
<path d="M32 22C30.0222 22 28.0888 22.5865 26.4443 23.6853C24.7998 24.7841 23.5181 26.3459 22.7612 28.1732C22.0043 30.0004 21.8063 32.0111 22.1922 33.9509C22.578 35.8907 23.5304 37.6725 24.9289 39.0711C26.3275 40.4696 28.1093 41.422 30.0491 41.8079C31.9889 42.1937 33.9996 41.9957 35.8268 41.2388C37.6541 40.4819 39.2159 39.2002 40.3147 37.5557C41.4135 35.9112 42 33.9778 42 32C42 29.3478 40.9464 26.8043 39.0711 24.9289C37.1957 23.0536 34.6522 22 32 22ZM32 38C30.8133 38 29.6533 37.6481 28.6666 36.9888C27.6799 36.3295 26.9109 35.3925 26.4567 34.2961C26.0026 33.1997 25.8838 31.9933 26.1153 30.8295C26.3468 29.6656 26.9182 28.5965 27.7574 27.7574C28.5965 26.9182 29.6656 26.3468 30.8295 26.1153C31.9934 25.8838 33.1997 26.0026 34.2961 26.4567C35.3925 26.9108 36.3295 27.6799 36.9888 28.6666C37.6481 29.6533 38 30.8133 38 32C38 33.5913 37.3679 35.1174 36.2426 36.2426C35.1174 37.3679 33.5913 38 32 38Z" fill="#00CED1"/>
<path d="M13.42 50.5799C13.2341 50.3924 13.0129 50.2436 12.7692 50.1421C12.5254 50.0406 12.264 49.9883 12 49.9883C11.736 49.9883 11.4746 50.0406 11.2308 50.1421C10.9871 50.2436 10.7659 50.3924 10.58 50.5799L2.58 58.5799C2.39254 58.7658 2.24375 58.987 2.14222 59.2307C2.04068 59.4744 1.9884 59.7359 1.9884 59.9999C1.9884 60.2639 2.04068 60.5253 2.14222 60.769C2.24375 61.0127 2.39254 61.2339 2.58 61.4199C2.76593 61.6073 2.98713 61.7561 3.23085 61.8577C3.47457 61.9592 3.73598 62.0115 4 62.0115C4.26402 62.0115 4.52543 61.9592 4.76915 61.8577C5.01287 61.7561 5.23407 61.6073 5.42 61.4199L13.42 53.4199C13.6075 53.234 13.7562 53.0128 13.8578 52.769C13.9593 52.5253 14.0116 52.2639 14.0116 51.9999C14.0116 51.7359 13.9593 51.4744 13.8578 51.2307C13.7562 50.987 13.6075 50.7658 13.42 50.5799Z" fill="#00CED1"/>
</svg>
