<svg width="64" height="64" viewBox="0 0 64 64" fill="none" xmlns="http://www.w3.org/2000/svg">
<path d="M48.8267 46.88C54.0267 42.24 57.3333 35.5201 57.3333 28.0001C57.3333 14.0268 45.9733 2.66675 32 2.66675C18.0267 2.66675 6.66667 14.0268 6.66667 28.0001C6.66667 35.5201 9.97331 42.24 15.1733 46.88L10.8534 57.6801C10.32 59.0401 10.9867 60.5867 12.3467 61.1467C12.6667 61.28 13.0134 61.3334 13.3333 61.3334C14.4001 61.3334 15.3867 60.6934 15.8133 59.6534L19.6266 50.08C23.3066 52.1601 27.52 53.3334 32 53.3334C36.48 53.3334 40.6934 52.1601 44.3734 50.08L48.1867 59.6534C48.6133 60.6934 49.5999 61.3334 50.6667 61.3334C50.9867 61.3334 51.3333 61.28 51.6533 61.1467C53.0134 60.5867 53.68 59.0401 53.1467 57.6801L48.8267 46.88ZM32 48.0001C20.96 48.0001 12 39.0401 12 28.0001C12 16.96 20.96 8.00008 32 8.00008C43.04 8.00008 52 16.96 52 28.0001C52 39.0401 43.04 48.0001 32 48.0001ZM32 13.3334C23.9199 13.3334 17.3333 19.92 17.3333 28.0001C17.3333 36.08 23.9199 42.6667 32 42.6667C40.0801 42.6667 46.6667 36.08 46.6667 28.0001C46.6667 19.92 40.0801 13.3334 32 13.3334ZM32 37.3334C26.8534 37.3334 22.6667 33.1467 22.6667 28.0001C22.6667 22.8534 26.8534 18.6667 32 18.6667C37.1467 18.6667 41.3333 22.8534 41.3333 28.0001C41.3333 33.1467 37.1467 37.3334 32 37.3334ZM36 28.0001C36 30.2133 34.2134 32.0001 32 32.0001C29.7866 32.0001 28 30.2133 28 28.0001C28 25.7867 29.7866 24.0001 32 24.0001C34.2134 24.0001 36 25.7867 36 28.0001Z" fill="#00CED1"/>
</svg>
