<svg width="32" height="32" viewBox="0 0 32 32" fill="none" xmlns="http://www.w3.org/2000/svg">
<path d="M15.8527 26.3782V30.857" stroke="#00CED1" stroke-width="2" stroke-linecap="round" stroke-linejoin="round"/>
<path d="M2.28905 15.7795C3.38505 22.6016 8.15017 26.3785 15.8528 26.3785C23.5554 26.3785 28.3207 22.6016 29.4167 15.7795" stroke="#00CED1" stroke-width="2" stroke-linecap="round" stroke-linejoin="round"/>
<path d="M8.52777 14.2224C8.74135 17.7002 11.4774 20.7719 14.9564 20.9655C15.3024 20.9847 15.6503 20.9955 16 20.9955C16.3497 20.9955 16.6976 20.9847 17.0436 20.9655C20.5226 20.7719 23.2587 17.7002 23.4722 14.2224C23.536 13.1852 23.5781 12.1333 23.5781 11.0692C23.5781 10.005 23.536 8.95311 23.4722 7.91592C23.2587 4.43814 20.5226 1.36643 17.0436 1.17287C16.6976 1.15361 16.3497 1.14282 16 1.14282C15.6503 1.14282 15.3024 1.15361 14.9564 1.17287C11.4774 1.36643 8.74133 4.43814 8.52777 7.91592C8.46409 8.95311 8.42188 10.005 8.42188 11.0692C8.42188 12.1333 8.46409 13.1852 8.52777 14.2224Z" stroke="#00CED1" stroke-width="2" stroke-linecap="round" stroke-linejoin="round"/>
</svg>
