<svg width="188" height="185" viewBox="0 0 188 185" fill="none" xmlns="http://www.w3.org/2000/svg">
<rect x="54.1692" y="55" width="78.7915" height="78.7915" rx="39.3957" fill="#00CED1"/>
<path d="M101.337 93.837L93.5806 101.662L85.7907 93.8599C85.4247 93.4935 84.8311 93.4928 84.4647 93.8592C84.0984 94.2252 84.0976 94.8188 84.4636 95.1852L92.9195 103.653C93.0957 103.83 93.3339 103.928 93.5832 103.928H93.5851C93.8345 103.928 94.0737 103.828 94.2492 103.651L102.668 95.157C103.033 94.7895 103.03 94.1959 102.662 93.8314C102.295 93.4665 101.701 93.4695 101.337 93.837Z" fill="white"/>
<path d="M92.9195 94.9571C93.0957 95.1334 93.3339 95.232 93.5832 95.232H93.5851C93.8345 95.2316 94.0737 95.1315 94.2492 94.9545L102.668 86.4607C103.033 86.0932 103.03 85.4996 102.662 85.1351C102.295 84.7702 101.701 84.7736 101.337 85.1411L93.5806 92.9659L85.7907 85.164C85.4247 84.7976 84.8311 84.7972 84.4647 85.1632C84.0984 85.5292 84.0976 86.1229 84.4636 86.4892L92.9195 94.9571Z" fill="white"/>
<path d="M16.3595 81.3402C16.2358 82.1589 15.9822 82.873 15.5987 83.4825C15.2053 84.0784 14.7256 84.5217 14.1598 84.8124C13.5821 85.1013 12.9542 85.2006 12.2761 85.1102L12.5371 83.3838C13.1275 83.4124 13.6558 83.2495 14.1219 82.8952C14.5781 82.5272 14.8671 81.9399 14.9891 81.133C15.1057 80.3618 15.0073 79.728 14.694 79.2316C14.3706 78.7215 13.9064 78.4207 13.3012 78.3292C12.8266 78.2575 12.4213 78.3297 12.0852 78.5459C11.7491 78.7621 11.4743 79.0543 11.2609 79.4225C11.0474 79.7908 10.8015 80.2936 10.5231 80.9312C10.1857 81.7176 9.87262 82.3438 9.58371 82.8099C9.2966 83.2641 8.9007 83.6351 8.39601 83.9229C7.88125 84.197 7.23825 84.2758 6.46701 84.1592C5.7907 84.0569 5.21751 83.7943 4.74746 83.3713C4.27741 82.9483 3.94664 82.4067 3.75515 81.7467C3.56545 81.0748 3.53159 80.3354 3.65357 79.5286C3.82935 78.3658 4.26355 77.4605 4.95615 76.8128C5.65055 76.1532 6.48546 75.8486 7.46089 75.8989L7.19183 77.6787C6.70826 77.6663 6.25531 77.8527 5.83299 78.2379C5.3988 78.6213 5.12699 79.1749 5.01758 79.8986C4.91533 80.575 5.0099 81.1536 5.30129 81.6346C5.5808 82.1137 6.03499 82.4008 6.66384 82.4959C7.11472 82.5641 7.50137 82.4951 7.82381 82.289C8.14803 82.071 8.41507 81.7897 8.62493 81.4452C8.82471 81.0871 9.07064 80.5842 9.36272 79.9366C9.71193 79.152 10.0369 78.5275 10.3377 78.0633C10.6266 77.5972 11.0293 77.2212 11.5459 76.9352C12.0506 76.6474 12.6945 76.5627 13.4776 76.6811C14.0827 76.7725 14.628 77.0188 15.1135 77.4199C15.599 77.821 15.9603 78.3611 16.1975 79.0401C16.4347 79.7192 16.4887 80.4859 16.3595 81.3402ZM12.6218 73.2673C11.6479 72.9643 10.8605 72.5058 10.2599 71.8916C9.64772 71.2739 9.24807 70.5589 9.06089 69.7467C8.87729 68.923 8.9245 68.0642 9.20253 67.1705C9.56255 66.0132 10.1391 65.1495 10.9323 64.5793C11.729 63.9977 12.6632 63.7417 13.735 63.8112L13.211 65.4955C12.5882 65.4777 12.0375 65.652 11.5591 66.0185C11.0842 66.3734 10.7398 66.8947 10.526 67.5822C10.2479 68.4759 10.3328 69.294 10.7804 70.0365C11.2166 70.7754 11.9962 71.3196 13.1191 71.6689C14.2535 72.0218 15.2156 72.0195 16.0054 71.6619C16.7953 71.3044 17.3292 70.6788 17.6072 69.785C17.8211 69.0975 17.8389 68.4747 17.6607 67.9166C17.4824 67.3584 17.1221 66.9007 16.5797 66.5435L17.1037 64.8591C17.9878 65.4106 18.6044 66.1554 18.9535 67.0935C19.2912 68.0279 19.2836 69.0624 18.9307 70.1967C18.6527 71.0905 18.2044 71.8245 17.5859 72.3987C16.971 72.9614 16.2363 73.3235 15.3818 73.485C14.5272 73.6464 13.6073 73.5739 12.6218 73.2673ZM16.4719 61.4568C15.5692 61.0083 14.87 60.4331 14.3745 59.7314C13.8683 59.0242 13.5846 58.2602 13.5235 57.4393C13.4677 56.6076 13.6347 55.7995 14.0245 55.015C14.4089 54.2413 14.9092 53.6523 15.5253 53.2483C16.1415 52.8442 16.7715 52.628 17.4154 52.5995L15.8034 51.7986L16.5402 50.3156L25.374 54.7045L24.6372 56.1876L22.993 55.3706C23.3646 55.9171 23.5783 56.5659 23.6338 57.3171C23.684 58.0522 23.5195 58.8012 23.1404 59.5642C22.7507 60.3488 22.2048 60.9619 21.5029 61.4038C20.801 61.8456 20.01 62.0757 19.13 62.094C18.2499 62.1123 17.3639 61.8999 16.4719 61.4568ZM20.2042 53.9851C19.5379 53.654 18.8908 53.5 18.263 53.5231C17.6352 53.5462 17.0775 53.7247 16.59 54.0586C16.0971 54.3765 15.7144 54.8095 15.4421 55.3576C15.1698 55.9056 15.0505 56.4694 15.0842 57.0489C15.1179 57.6285 15.3151 58.1753 15.676 58.6896C16.0368 59.2039 16.5504 59.6266 17.2167 59.9576C17.8938 60.294 18.5516 60.4533 19.1901 60.4356C19.818 60.4125 20.3784 60.2421 20.8713 59.9242C21.3534 59.601 21.7307 59.1653 22.003 58.6172C22.2753 58.0692 22.3946 57.5054 22.361 56.9259C22.3219 56.3303 22.1219 55.7753 21.761 55.2611C21.3894 54.7414 20.8705 54.3161 20.2042 53.9851ZM16.8064 43.0182L27.9565 50.305L27.0604 51.6762L15.9103 44.3893L16.8064 43.0182ZM21.2988 39.8492C21.1112 40.0985 20.8661 40.2445 20.5637 40.2873C20.2612 40.33 19.9853 40.2575 19.736 40.0699C19.4867 39.8823 19.3407 39.6373 19.298 39.3348C19.2553 39.0324 19.3277 38.7565 19.5153 38.5072C19.6957 38.2675 19.9335 38.131 20.2288 38.0979C20.5312 38.0552 20.8071 38.1276 21.0564 38.3152C21.3057 38.5028 21.4517 38.7479 21.4944 39.0503C21.5444 39.3432 21.4792 39.6095 21.2988 39.8492ZM23.055 40.1796L30.9368 46.1106L29.9519 47.4195L22.0702 41.4885L23.055 40.1796ZM29.1421 33.0209C29.9644 32.1469 30.897 31.6898 31.9399 31.6495C32.9742 31.6011 33.9894 32.0455 34.9857 32.983L39.2201 36.967L38.11 38.1469L34.0461 34.3232C33.3294 33.6489 32.6146 33.3141 31.9017 33.3188C31.18 33.3153 30.5272 33.6239 29.9434 34.2444C29.3513 34.8736 29.0751 35.5612 29.1148 36.307C29.1627 37.0441 29.5625 37.7663 30.3141 38.4734L34.2863 42.2108L33.1639 43.4038L25.9798 36.6445L27.1023 35.4515L28.1248 36.4136C27.9798 35.8322 27.9959 35.246 28.1731 34.6548C28.3586 34.0549 28.6816 33.5103 29.1421 33.0209ZM38.8074 24.2395C39.4832 23.7206 40.1865 23.415 40.9175 23.3227C41.658 23.2231 42.3238 23.3019 42.9147 23.5592L41.8185 22.1316L43.1319 21.123L49.2711 29.1178C49.8192 29.8316 50.153 30.5814 50.2723 31.3673C50.3989 32.1628 50.2973 32.9368 49.9675 33.6894C49.6471 34.4346 49.111 35.096 48.3591 35.6734C47.3312 36.4627 46.2882 36.8778 45.2302 36.9186C44.1722 36.9594 43.2598 36.6085 42.4929 35.866L43.7778 34.8793C44.286 35.2456 44.8734 35.3997 45.5399 35.3418C46.2138 35.2933 46.8649 35.0279 47.493 34.5455C48.2068 33.9974 48.6157 33.3279 48.7195 32.5371C48.8328 31.7389 48.5789 30.9354 47.9577 30.1264L46.6969 28.4846C46.7908 29.1387 46.7024 29.8118 46.4318 30.5037C46.1613 31.1956 45.6881 31.801 45.0124 32.32C44.3176 32.8535 43.5531 33.1682 42.719 33.2641C41.8943 33.3526 41.0827 33.2118 40.284 32.8417C39.4854 32.4715 38.7827 31.8915 38.1761 31.1015C37.5622 30.302 37.1868 29.4783 37.05 28.6302C36.9058 27.7725 36.9866 26.9616 37.2923 26.1972C37.6076 25.4256 38.1126 24.773 38.8074 24.2395ZM44.8113 26.029C44.3582 25.4389 43.8446 25.0163 43.2704 24.7612C42.6963 24.5062 42.1169 24.4215 41.5322 24.5074C40.9498 24.5764 40.4158 24.7973 39.9304 25.17C39.445 25.5428 39.0902 25.9968 38.8659 26.5322C38.6415 27.0676 38.5785 27.6455 38.6767 28.2661C38.775 28.8866 39.0507 29.4919 39.5038 30.082C39.9643 30.6816 40.4852 31.1137 41.0666 31.3783C41.6408 31.6334 42.2191 31.7264 42.8015 31.6574C43.3767 31.5789 43.9069 31.3532 44.3923 30.9805C44.8777 30.6078 45.2326 30.1537 45.4569 29.6183C45.6835 29.0661 45.7476 28.4798 45.6494 27.8592C45.5438 27.2292 45.2645 26.6191 44.8113 26.029ZM59.8108 15.7736C60.2554 15.6493 60.7092 15.6461 61.1723 15.7641C61.6463 15.8771 62.0739 16.0905 62.4551 16.4043C62.8472 16.7131 63.1482 17.0967 63.3579 17.555C63.6226 18.1333 63.715 18.7244 63.6351 19.3285C63.5503 19.9216 63.2866 20.4844 62.844 21.0169C62.4074 21.5334 61.8072 21.9665 61.0434 22.3161L56.788 24.2638L51.5666 12.8559L55.6584 10.9831C56.4331 10.6286 57.1532 10.4574 57.8186 10.4695C58.4791 10.4708 59.0456 10.6272 59.5181 10.9388C59.9906 11.2504 60.3518 11.679 60.6015 12.2246C60.9111 12.9011 60.9828 13.5479 60.8166 14.1651C60.6563 14.7664 60.321 15.3025 59.8108 15.7736ZM55.3109 17.1007L57.815 15.9546C58.5134 15.635 58.9786 15.2241 59.2107 14.722C59.4427 14.2198 59.4264 13.6796 59.1617 13.1013C58.8971 12.523 58.4988 12.1576 57.9671 12.005C57.4354 11.8525 56.8095 11.941 56.0893 12.2706L53.6179 13.4018L55.3109 17.1007ZM60.3506 21.1485C61.0926 20.8089 61.591 20.3696 61.8458 19.8307C62.1007 19.2918 62.0857 18.7113 61.8011 18.0894C61.5114 17.4565 61.066 17.0599 60.4647 16.8996C59.8584 16.7284 59.1898 16.8101 58.4587 17.1447L55.8727 18.3283L57.7155 22.3546L60.3506 21.1485ZM66.5834 11.1619C66.6867 10.5371 66.9426 9.99595 67.351 9.53846C67.7709 9.07732 68.3468 8.73024 69.0786 8.49722L69.5919 10.1095L69.1803 10.2405C67.4308 10.7976 66.8583 12.0252 67.4627 13.9233L69.0903 19.0344L67.5295 19.5314L64.5366 10.1324L66.0974 9.63542L66.5834 11.1619ZM73.1545 12.6712C72.9727 11.6797 73.0143 10.7754 73.2792 9.95822C73.542 9.12923 73.9837 8.44433 74.6044 7.90352C75.2368 7.36055 75.9839 7.01006 76.8455 6.85206C77.6953 6.69623 78.4666 6.74391 79.1592 6.9951C79.8519 7.24628 80.4025 7.62112 80.8111 8.1196L80.4865 6.34911L82.1153 6.05043L83.8944 15.7527L82.2656 16.0513L81.9344 14.2455C81.7196 14.8704 81.3282 15.4302 80.7601 15.9248C80.2016 16.4054 79.5033 16.7226 78.6653 16.8762C77.8037 17.0342 76.9857 16.9646 76.2114 16.6674C75.4371 16.3702 74.779 15.8748 74.237 15.1811C73.695 14.4875 73.3342 13.6509 73.1545 12.6712ZM81.3728 11.1825C81.2386 10.4507 80.9742 9.84041 80.5795 9.35157C80.1849 8.86273 79.7078 8.52321 79.1484 8.333C78.5985 8.12882 78.0226 8.08192 77.4207 8.1923C76.8187 8.30269 76.2958 8.54497 75.852 8.91915C75.4082 9.29333 75.0886 9.77894 74.8931 10.376C74.6975 10.9731 74.6669 11.6375 74.8011 12.3693C74.9374 13.1129 75.204 13.735 75.6008 14.2356C75.9954 14.7245 76.4677 15.071 77.0175 15.2752C77.5652 15.4675 78.14 15.5085 78.742 15.3982C79.344 15.2878 79.8668 15.0455 80.3106 14.6713C80.764 14.2832 81.0885 13.7906 81.284 13.1935C81.4774 12.5847 81.507 11.9143 81.3728 11.1825ZM91.8916 5.1838C93.0912 5.15445 94.0719 5.49656 94.8336 6.21014C95.5949 6.91173 95.9924 7.94632 96.0258 9.31391L96.1681 15.1262L94.5485 15.1658L94.412 9.58747C94.388 8.60376 94.1237 7.86 93.6192 7.35619C93.1145 6.84039 92.4362 6.5929 91.5845 6.61374C90.7207 6.63488 90.0375 6.92168 89.5349 7.47414C89.0442 8.02631 88.8115 8.81823 88.8368 9.84993L88.9702 15.3023L87.3327 15.3424L87.0914 5.48131L88.7289 5.44124L88.7633 6.84482C89.0748 6.33305 89.5032 5.93245 90.0482 5.64303C90.6053 5.35332 91.2198 5.20024 91.8916 5.1838ZM99.5904 10.2553C99.7237 9.25621 100.043 8.40895 100.547 7.71357C101.053 7.0063 101.685 6.49134 102.442 6.1687C103.211 5.84764 104.036 5.74585 104.916 5.86333C105.677 5.96493 106.361 6.23781 106.968 6.68196C107.576 7.11422 108.015 7.63883 108.283 8.25581L108.974 3.08169L110.615 3.30078L108.853 16.5037L107.212 16.2846L107.457 14.4469C107.058 14.9869 106.518 15.4051 105.837 15.7016C105.157 15.9862 104.395 16.0721 103.551 15.9594C102.682 15.8435 101.92 15.5238 101.263 15.0004C100.619 14.4785 100.146 13.804 99.8446 12.9769C99.5434 12.1498 99.4586 11.2426 99.5904 10.2553ZM107.867 11.3781C107.965 10.6407 107.902 9.97851 107.678 9.39168C107.453 8.80484 107.105 8.33456 106.631 7.98082C106.171 7.61678 105.638 7.39428 105.031 7.31331C104.425 7.23235 103.853 7.30126 103.315 7.52005C102.777 7.73885 102.323 8.10197 101.953 8.60943C101.583 9.11689 101.348 9.73935 101.25 10.4768C101.15 11.2262 101.211 11.9002 101.434 12.4989C101.658 13.0858 102 13.5612 102.46 13.9253C102.922 14.2774 103.456 14.494 104.062 14.5749C104.669 14.6559 105.241 14.587 105.779 14.3682C106.33 14.1391 106.791 13.7708 107.161 13.2633C107.533 12.744 107.768 12.1156 107.867 11.3781ZM115.573 18.2609C114.845 18.0556 114.227 17.7501 113.718 17.3446C113.212 16.9275 112.854 16.4523 112.643 15.9189C112.435 15.374 112.395 14.8079 112.524 14.2207L114.152 14.6803C114.065 15.1669 114.175 15.6157 114.483 16.0268C114.802 16.4412 115.285 16.7396 115.932 16.9222C116.533 17.0917 117.044 17.0925 117.465 16.9247C117.887 16.7569 118.154 16.4709 118.268 16.0667C118.386 15.6509 118.287 15.2927 117.973 14.9921C117.662 14.6799 117.148 14.3164 116.429 13.9017C115.777 13.518 115.252 13.1703 114.854 12.8583C114.47 12.5381 114.169 12.1476 113.95 11.6868C113.746 11.2177 113.73 10.677 113.903 10.065C114.04 9.57992 114.309 9.17605 114.712 8.85334C115.115 8.53063 115.615 8.32877 116.211 8.24776C116.811 8.15519 117.451 8.20508 118.133 8.39741C119.184 8.69407 119.958 9.1993 120.454 9.91309C120.951 10.6269 121.092 11.4523 120.878 12.3892L119.301 11.9442C119.407 11.4378 119.317 10.9824 119.032 10.5778C118.759 10.1764 118.316 9.8894 117.704 9.71662C117.138 9.55688 116.654 9.55101 116.25 9.69899C115.847 9.84697 115.59 10.1173 115.479 10.51C115.391 10.8218 115.416 11.1093 115.553 11.3726C115.706 11.6276 115.914 11.861 116.179 12.0728C116.458 12.2763 116.848 12.5298 117.348 12.8331C117.977 13.2102 118.48 13.5515 118.855 13.8569C119.233 14.1507 119.522 14.519 119.721 14.9618C119.932 15.4078 119.962 15.9212 119.81 16.5019C119.663 17.0216 119.387 17.4486 118.981 17.7828C118.575 18.1171 118.072 18.3305 117.472 18.423C116.887 18.5073 116.254 18.4533 115.573 18.2609ZM137.455 13.9513L137.504 15.2879L134.8 15.0877L136.584 17.1423L135.429 17.9087L134.202 15.511L133.23 18.0655L132.026 17.4551L133.496 15.1529L130.829 15.597L130.756 14.1878L133.46 14.388L131.684 12.3576L132.823 11.5831L134.09 14.0212L135.07 11.4506L136.29 12.0692L134.78 14.3712L137.455 13.9513ZM152.961 28.8918C153.161 28.1063 153.133 27.3504 152.878 26.6242C152.631 25.8888 152.17 25.2413 151.496 24.682C150.822 24.1226 150.082 23.7738 149.277 23.6357C148.488 23.496 147.696 23.5868 146.899 23.9081C146.119 24.2277 145.415 24.7662 144.787 25.5235C144.158 26.2807 143.759 27.0721 143.589 27.8975C143.427 28.7306 143.484 29.5263 143.76 30.2848C144.052 31.0416 144.535 31.6997 145.209 32.2591C146.151 33.0407 147.16 33.4027 148.237 33.3452C149.314 33.2876 150.302 32.8207 151.2 31.9446L147.349 28.7492L148.2 27.7242L153.394 32.0345L152.59 33.0041C151.857 33.737 151.002 34.2597 150.026 34.5721C149.057 34.8753 148.065 34.9334 147.051 34.7466C146.044 34.5505 145.116 34.1 144.266 33.395C143.37 32.6517 142.726 31.7658 142.332 30.7372C141.945 29.6994 141.846 28.6264 142.032 27.5182C142.228 26.4177 142.717 25.3965 143.498 24.4545C144.28 23.5126 145.194 22.8438 146.239 22.4483C147.301 22.0512 148.374 21.9514 149.458 22.1488C150.549 22.337 151.543 22.8028 152.439 23.5461C153.464 24.3966 154.158 25.4016 154.521 26.5608C154.894 27.7277 154.877 28.9223 154.471 30.1447L152.961 28.8918ZM158.359 34.871C158.97 34.7051 159.568 34.7127 160.154 34.8939C160.748 35.0839 161.303 35.4633 161.82 36.0319L160.567 37.1692L160.277 36.8494C159.042 35.4901 157.688 35.48 156.213 36.819L152.242 40.4248L151.141 39.2121L158.444 32.5814L159.545 33.7941L158.359 34.871ZM158.332 48.4421C157.802 47.6849 157.493 46.8761 157.404 46.0159C157.322 45.1655 157.471 44.3432 157.853 43.5491C158.252 42.7579 158.869 42.07 159.705 41.4855C160.531 40.9078 161.382 40.576 162.259 40.4899C163.153 40.4068 163.984 40.5581 164.751 40.9438C165.529 41.3227 166.186 41.8956 166.722 42.6627C167.258 43.4297 167.571 44.2434 167.66 45.1036C167.759 45.957 167.618 46.7807 167.236 47.5749C166.861 48.3788 166.255 49.0731 165.419 49.6576C164.584 50.2422 163.715 50.5711 162.815 50.6444C161.931 50.7206 161.097 50.5644 160.313 50.1757C159.528 49.787 158.868 49.2091 158.332 48.4421ZM159.512 47.6169C159.849 48.0987 160.278 48.472 160.8 48.7367C161.322 49.0014 161.898 49.1034 162.529 49.0428C163.168 48.992 163.811 48.7396 164.46 48.2858C165.109 47.8319 165.57 47.319 165.844 46.7469C166.118 46.1749 166.218 45.6067 166.146 45.0424C166.083 44.4712 165.883 43.9447 165.546 43.4628C165.202 42.9711 164.773 42.5978 164.258 42.343C163.76 42.0911 163.198 42.0003 162.574 42.0708C161.95 42.1413 161.313 42.4035 160.664 42.8574C160.005 43.3181 159.532 43.8247 159.245 44.377C158.964 44.9392 158.852 45.501 158.908 46.0623C158.973 46.6168 159.175 47.135 159.512 47.6169ZM177.239 62.7768L166.991 64.1024L166.284 62.5652L172.405 57.1346L164.298 58.248L163.591 56.7108L171.259 49.7761L171.959 51.2969L165.384 56.8175L173.929 55.5814L174.629 57.1023L168.091 62.7448L176.562 61.305L177.239 62.7768ZM180.282 66.5053C180.19 66.2071 180.215 65.923 180.358 65.653C180.501 65.383 180.722 65.2022 181.02 65.1104C181.318 65.0187 181.602 65.0443 181.872 65.1872C182.142 65.3301 182.323 65.5507 182.415 65.8489C182.503 66.1356 182.474 66.4082 182.328 66.6667C182.185 66.9367 181.964 67.1176 181.666 67.2093C181.368 67.3011 181.084 67.2755 180.814 67.1326C180.547 67.0011 180.37 66.792 180.282 66.5053ZM178.983 67.7334L169.556 70.6342L169.074 69.0686L178.502 66.1678L178.983 67.7334ZM181.18 76.9335C181.398 78.1137 181.214 79.1359 180.629 80.0002C180.055 80.8624 179.096 81.4175 177.751 81.6654L172.033 82.7191L171.74 81.1259L177.227 80.1146C178.195 79.9363 178.888 79.5584 179.306 78.9811C179.736 78.4015 179.874 77.6928 179.72 76.8549C179.563 76.0052 179.172 75.3756 178.548 74.966C177.925 74.5682 177.107 74.4628 176.092 74.6499L170.728 75.6383L170.431 74.0274L180.132 72.2398L180.429 73.8506L179.048 74.1051C179.603 74.3324 180.065 74.6924 180.437 75.1853C180.811 75.6899 181.058 76.2727 181.18 76.9335ZM182.51 89.9693C182.524 90.8211 182.351 91.5681 181.989 92.2102C181.628 92.8643 181.168 93.352 180.61 93.6734L182.409 93.6434L182.437 95.2992L172.358 95.4667C171.458 95.4817 170.657 95.303 169.955 94.9306C169.241 94.5584 168.68 94.0157 168.272 93.3024C167.864 92.601 167.652 91.7764 167.636 90.8286C167.615 89.5328 167.903 88.4478 168.5 87.5738C169.098 86.6997 169.923 86.1759 170.977 86.0024L171.004 87.6222C170.407 87.8121 169.933 88.192 169.582 88.7619C169.22 89.3321 169.045 90.013 169.058 90.8049C169.073 91.7048 169.367 92.432 169.941 92.9866C170.514 93.5531 171.311 93.8279 172.331 93.811L174.4 93.7766C173.819 93.4622 173.331 92.9902 172.937 92.3607C172.542 91.7312 172.338 90.9905 172.324 90.1386C172.309 89.2627 172.512 88.4612 172.932 87.7341C173.352 87.0191 173.949 86.4511 174.722 86.0302C175.495 85.6093 176.379 85.3905 177.375 85.374C178.383 85.3572 179.268 85.5465 180.031 85.9419C180.806 86.3371 181.409 86.8851 181.841 87.5861C182.272 88.299 182.496 89.0934 182.51 89.9693ZM177.496 93.7251C178.24 93.7128 178.885 93.552 179.432 93.2429C179.979 92.9337 180.392 92.5188 180.672 91.9981C180.963 91.4892 181.104 90.9288 181.094 90.3169C181.084 89.7049 180.93 89.1494 180.634 88.6503C180.338 88.1511 179.911 87.7562 179.354 87.4654C178.797 87.1746 178.147 87.0354 177.403 87.0477C176.647 87.0603 175.99 87.2212 175.431 87.5306C174.884 87.8397 174.465 88.2487 174.173 88.7577C173.893 89.2664 173.759 89.8267 173.769 90.4386C173.779 91.0505 173.932 91.606 174.229 92.1052C174.537 92.6161 174.97 93.017 175.527 93.3078C176.096 93.5984 176.752 93.7375 177.496 93.7251ZM183.919 108.103L171.547 106.02L171.819 104.405L184.191 106.488L183.919 108.103ZM175.731 110.283C176.696 110.573 177.482 111.022 178.089 111.63C178.708 112.241 179.117 112.946 179.315 113.745C179.511 114.555 179.481 115.386 179.226 116.236C179.005 116.972 178.628 117.604 178.094 118.133C177.571 118.665 176.983 119.015 176.332 119.183L181.332 120.682L180.856 122.269L168.097 118.443L168.573 116.856L170.349 117.389C169.879 116.91 169.551 116.31 169.366 115.591C169.192 114.875 169.228 114.109 169.473 113.293C169.724 112.454 170.16 111.751 170.781 111.186C171.398 110.632 172.139 110.271 173.003 110.104C173.867 109.938 174.777 109.997 175.731 110.283ZM173.314 118.278C174.027 118.492 174.691 118.534 175.306 118.406C175.921 118.277 176.44 118.007 176.864 117.595C177.296 117.199 177.6 116.707 177.776 116.121C177.952 115.535 177.974 114.959 177.843 114.393C177.712 113.828 177.425 113.322 176.983 112.876C176.54 112.43 175.962 112.101 175.25 111.887C174.526 111.67 173.85 111.624 173.224 111.749C172.609 111.878 172.086 112.141 171.653 112.537C171.233 112.937 170.935 113.43 170.759 114.017C170.583 114.603 170.561 115.179 170.692 115.744C170.831 116.325 171.122 116.838 171.564 117.284C172.018 117.733 172.602 118.065 173.314 118.278ZM167.737 132.103C167.457 131.967 167.168 131.806 166.87 131.622L170.315 124.53C169.414 124.159 168.584 124.123 167.826 124.422C167.073 124.737 166.507 125.282 166.13 126.06C165.821 126.697 165.71 127.296 165.797 127.859C165.889 128.437 166.142 128.933 166.554 129.347L165.784 130.934C165.046 130.282 164.581 129.469 164.387 128.495C164.204 127.526 164.369 126.512 164.883 125.454C165.292 124.612 165.848 123.948 166.551 123.463C167.248 122.988 168.034 122.729 168.909 122.687C169.794 122.65 170.695 122.854 171.613 123.3C172.53 123.745 173.245 124.319 173.758 125.022C174.27 125.724 174.55 126.494 174.598 127.331C174.65 128.183 174.467 129.041 174.048 129.905C173.639 130.747 173.093 131.403 172.412 131.872C171.73 132.341 170.982 132.592 170.166 132.622C169.357 132.669 168.547 132.496 167.737 132.103ZM168.784 130.73C169.345 131.003 169.886 131.112 170.406 131.058C170.937 131.009 171.41 130.818 171.824 130.486C172.245 130.17 172.581 129.753 172.832 129.235C173.194 128.49 173.266 127.738 173.048 126.978C172.825 126.229 172.31 125.613 171.505 125.128L168.784 130.73ZM165.938 134.601C166.764 135.179 167.369 135.852 167.754 136.62C168.149 137.395 168.315 138.193 168.253 139.014C168.184 139.844 167.898 140.618 167.396 141.336C166.9 142.043 166.317 142.551 165.648 142.858C164.978 143.166 164.323 143.286 163.682 143.218L165.156 144.25L164.206 145.607L156.127 139.947L157.077 138.591L158.581 139.644C158.295 139.048 158.181 138.375 158.238 137.624C158.298 136.889 158.573 136.173 159.062 135.476C159.564 134.758 160.196 134.233 160.956 133.901C161.716 133.569 162.532 133.46 163.405 133.573C164.278 133.687 165.122 134.029 165.938 134.601ZM161.131 141.431C161.741 141.858 162.358 142.107 162.982 142.178C163.606 142.249 164.184 142.156 164.716 141.898C165.251 141.657 165.694 141.287 166.045 140.785C166.396 140.284 166.598 139.744 166.652 139.166C166.705 138.588 166.592 138.018 166.312 137.456C166.032 136.893 165.587 136.399 164.978 135.972C164.359 135.538 163.732 135.282 163.098 135.204C162.474 135.133 161.894 135.218 161.359 135.459C160.834 135.706 160.396 136.081 160.045 136.582C159.694 137.083 159.492 137.623 159.438 138.201C159.388 138.796 159.503 139.374 159.783 139.937C160.072 140.506 160.522 141.004 161.131 141.431ZM151.447 145.075C151.969 144.528 152.528 144.124 153.124 143.864C153.729 143.611 154.317 143.517 154.887 143.579C155.466 143.65 155.985 143.88 156.444 144.268L155.277 145.493C154.888 145.188 154.439 145.076 153.932 145.156C153.416 145.244 152.927 145.532 152.463 146.018C152.033 146.47 151.793 146.922 151.744 147.373C151.696 147.824 151.824 148.194 152.128 148.484C152.44 148.782 152.803 148.862 153.216 148.725C153.637 148.596 154.199 148.311 154.901 147.87C155.545 147.472 156.098 147.17 156.56 146.964C157.022 146.775 157.508 146.691 158.018 146.713C158.528 146.751 159.013 146.99 159.474 147.429C159.839 147.776 160.07 148.204 160.167 148.711C160.264 149.218 160.209 149.754 160.002 150.319C159.803 150.892 159.46 151.435 158.971 151.948C158.218 152.738 157.41 153.186 156.547 153.292C155.683 153.398 154.888 153.137 154.16 152.509L155.29 151.323C155.688 151.653 156.133 151.787 156.623 151.724C157.106 151.67 157.567 151.413 158.005 150.952C158.411 150.527 158.643 150.101 158.7 149.675C158.758 149.25 158.639 148.896 158.344 148.614C158.109 148.391 157.843 148.278 157.546 148.277C157.25 148.293 156.946 148.368 156.635 148.503C156.325 148.654 155.918 148.881 155.416 149.181C154.789 149.561 154.253 149.846 153.807 150.035C153.371 150.232 152.91 150.315 152.426 150.284C151.933 150.262 151.465 150.049 151.022 149.643C150.632 149.271 150.383 148.827 150.277 148.312C150.172 147.797 150.218 147.252 150.416 146.679C150.615 146.122 150.959 145.588 151.447 145.075ZM145.053 166.46L143.849 165.878L145.289 163.581L142.639 164.198L142.501 162.819L145.194 162.855L143.39 160.802L144.493 160.022L145.841 162.398L146.695 159.832L147.975 160.427L146.534 162.723L149.159 162.102L149.311 163.471L146.564 163.452L148.379 165.52L147.262 166.309L145.932 163.898L145.053 166.46ZM126.834 169.81C126.387 169.926 125.933 169.922 125.472 169.796C125 169.674 124.576 169.454 124.201 169.133C123.814 168.818 123.52 168.429 123.318 167.967C123.063 167.384 122.981 166.792 123.071 166.189C123.167 165.598 123.44 165.039 123.892 164.515C124.337 164.006 124.945 163.583 125.714 163.247L130.003 161.373L135.026 172.869L130.903 174.671C130.122 175.012 129.399 175.171 128.734 175.147C128.074 175.135 127.51 174.968 127.043 174.649C126.576 174.329 126.222 173.894 125.982 173.344C125.684 172.663 125.624 172.015 125.8 171.4C125.971 170.802 126.316 170.272 126.834 169.81ZM131.356 168.56L128.832 169.663C128.129 169.971 127.656 170.373 127.416 170.871C127.175 171.369 127.182 171.91 127.437 172.493C127.691 173.075 128.083 173.448 128.612 173.609C129.141 173.771 129.769 173.693 130.494 173.376L132.985 172.288L131.356 168.56ZM126.387 164.426C125.639 164.753 125.133 165.183 124.869 165.718C124.605 166.252 124.61 166.833 124.884 167.46C125.163 168.098 125.601 168.502 126.199 168.672C126.803 168.854 127.473 168.784 128.209 168.462L130.815 167.323L129.042 163.266L126.387 164.426ZM113.251 177.66L110.715 168.128L112.298 167.707L112.673 169.115C112.844 168.548 113.166 168.053 113.637 167.63C114.099 167.221 114.655 166.93 115.305 166.757C116.047 166.56 116.754 166.533 117.425 166.677C118.1 166.833 118.693 167.172 119.205 167.694C119.704 168.219 120.072 168.922 120.306 169.804L121.792 175.387L120.226 175.804L118.796 170.429C118.546 169.49 118.116 168.828 117.504 168.444C116.896 168.072 116.181 167.996 115.357 168.215C114.511 168.44 113.913 168.878 113.565 169.53C113.217 170.181 113.176 171.006 113.441 172.003L114.834 177.239L113.251 177.66ZM108.214 180.335C108.522 180.289 108.8 180.356 109.046 180.537C109.292 180.718 109.438 180.963 109.485 181.271C109.532 181.58 109.465 181.857 109.284 182.103C109.102 182.349 108.858 182.495 108.549 182.542C108.253 182.587 107.987 182.518 107.753 182.335C107.507 182.154 107.361 181.909 107.314 181.601C107.267 181.292 107.334 181.015 107.515 180.769C107.684 180.525 107.917 180.38 108.214 180.335ZM107.19 178.87L105.709 169.118L107.328 168.872L108.81 178.624L107.19 178.87ZM101.791 182.975L100.597 169.708L102.229 169.562L103.423 182.828L101.791 182.975ZM97.5882 174.847C97.564 175.855 97.3389 176.731 96.9129 177.477C96.4866 178.235 95.9145 178.816 95.1966 179.219C94.4667 179.621 93.6579 179.812 92.7702 179.791C92.0024 179.772 91.2929 179.575 90.6417 179.199C89.9903 178.836 89.4975 178.362 89.1635 177.777L89.0381 182.996L87.3826 182.956L87.7024 169.64L89.3579 169.68L89.3134 171.533C89.6514 170.953 90.143 170.479 90.788 170.11C91.4328 169.754 92.181 169.586 93.0328 169.606C93.9085 169.627 94.7011 169.862 95.4105 170.311C96.1079 170.76 96.6512 171.379 97.0404 172.169C97.4295 172.959 97.6122 173.851 97.5882 174.847ZM89.2391 174.628C89.2212 175.372 89.3556 176.024 89.6423 176.583C89.9289 177.142 90.3267 177.571 90.8357 177.872C91.3323 178.184 91.8866 178.347 92.4984 178.362C93.1102 178.376 93.6715 178.246 94.1823 177.97C94.693 177.694 95.105 177.284 95.4182 176.739C95.7314 176.195 95.8969 175.55 95.9147 174.807C95.9329 174.051 95.7988 173.388 95.5124 172.816C95.2257 172.257 94.8341 171.822 94.3374 171.51C93.8405 171.21 93.2861 171.053 92.6743 171.038C92.0625 171.023 91.5012 171.154 90.9904 171.43C90.4673 171.717 90.0492 172.133 89.7361 172.678C89.4226 173.234 89.2569 173.885 89.2391 174.628ZM81.8165 180.636C82.1255 180.68 82.372 180.823 82.556 181.067C82.74 181.311 82.8104 181.587 82.7672 181.896C82.724 182.205 82.5805 182.452 82.3367 182.636C82.0928 182.82 81.8164 182.89 81.5074 182.847C81.2103 182.805 80.9757 182.663 80.8036 182.421C80.6196 182.177 80.5492 181.901 80.5924 181.592C80.6356 181.283 80.7791 181.037 81.0229 180.853C81.2549 180.667 81.5194 180.595 81.8165 180.636ZM81.254 178.94L82.6198 169.171L84.242 169.398L82.8762 179.167L81.254 178.94ZM72.0706 177.117C70.9065 176.826 70.0524 176.235 69.5084 175.344C68.9615 174.465 68.8541 173.362 69.1862 172.035L70.5979 166.395L72.1694 166.788L70.8146 172.201C70.5757 173.156 70.6322 173.943 70.9842 174.563C71.3333 175.195 71.9211 175.614 72.7476 175.821C73.5857 176.03 74.3206 175.936 74.9523 175.537C75.5723 175.136 76.0076 174.435 76.2582 173.434L77.5824 168.143L79.1714 168.54L76.7764 178.109L75.1875 177.712L75.5283 176.35C75.0917 176.76 74.5721 177.032 73.9696 177.166C73.3555 177.296 72.7224 177.28 72.0706 177.117ZM59.7141 172.995C58.9304 172.661 58.3189 172.198 57.8796 171.607C57.4293 171.011 57.1713 170.392 57.1054 169.751L56.3996 171.407L54.8762 170.757L58.8282 161.484C59.1811 160.656 59.6706 159.998 60.2967 159.508C60.9276 159.007 61.6518 158.716 62.4694 158.634C63.276 158.547 64.1153 158.689 64.9874 159.061C66.1796 159.569 67.0532 160.274 67.6081 161.176C68.163 162.078 68.3052 163.045 68.0347 164.077L66.5444 163.442C66.614 162.82 66.46 162.232 66.0823 161.68C65.7093 161.117 65.1585 160.68 64.4299 160.369C63.6019 160.016 62.818 159.989 62.078 160.287C61.327 160.58 60.7516 161.195 60.3516 162.134L59.5401 164.038C60.064 163.635 60.6937 163.382 61.4294 163.278C62.165 163.174 62.9247 163.289 63.7085 163.623C64.5144 163.966 65.1638 164.478 65.6568 165.158C66.1387 165.833 66.4144 166.609 66.484 167.486C66.5535 168.364 66.393 169.261 66.0025 170.177C65.6073 171.104 65.0738 171.836 64.4021 172.371C63.7257 172.918 62.9795 173.245 62.1635 173.354C61.3365 173.458 60.52 173.339 59.7141 172.995ZM58.3262 166.886C58.0346 167.57 57.9185 168.225 57.9781 168.851C58.0376 169.476 58.2483 170.022 58.6101 170.49C58.9561 170.963 59.4106 171.32 59.9736 171.56C60.5366 171.8 61.1064 171.886 61.683 171.819C62.2595 171.752 62.794 171.523 63.2864 171.133C63.7788 170.742 64.1708 170.205 64.4625 169.521C64.7589 168.825 64.8797 168.159 64.8249 167.523C64.7653 166.897 64.5625 166.348 64.2165 165.874C63.8657 165.412 63.4089 165.06 62.8459 164.821C62.2829 164.581 61.7131 164.494 61.1365 164.562C60.5442 164.635 60.0018 164.867 59.5094 165.257C59.0123 165.659 58.6179 166.202 58.3262 166.886ZM37.8761 163.457L38.6454 162.37L43.0978 165.52L45.5409 162.067L41.9261 159.509L42.6954 158.422L46.3102 160.979L49.5745 156.365L50.9117 157.311L43.6657 167.553L37.8761 163.457ZM29.9158 152.662L36.6948 145.497L37.8846 146.622L36.8826 147.681C37.4557 147.53 38.046 147.543 38.6536 147.721C39.2443 147.9 39.7837 148.221 40.2719 148.682C40.8297 149.21 41.2238 149.798 41.4539 150.445C41.6758 151.101 41.699 151.784 41.5234 152.493C41.3391 153.194 40.9336 153.876 40.3068 154.539L36.3359 158.736L35.1591 157.623L38.9816 153.582C39.6496 152.876 39.9863 152.162 39.9918 151.441C39.989 150.728 39.6781 150.078 39.0592 149.493C38.4229 148.891 37.7361 148.613 36.9989 148.659C36.2616 148.704 35.5384 149.102 34.8292 149.852L31.1057 153.788L29.9158 152.662ZM26.4586 146.872L30.9424 143.171C31.3126 142.866 31.5114 142.569 31.5389 142.282C31.5571 142.003 31.4058 141.669 31.085 141.28L30.3173 140.35L31.3862 139.467L32.3258 140.606C32.9063 141.309 33.1798 141.97 33.1461 142.589C33.1125 143.208 32.7255 143.823 31.9851 144.435L27.5013 148.136L28.3148 149.121L27.2737 149.981L26.4601 148.995L24.5444 150.576L23.5017 149.313L25.4174 147.732L23.7789 145.747L24.82 144.887L26.4586 146.872ZM16.7978 135.15L25.1384 129.884L26.0129 131.269L24.7801 132.047C25.3728 132.042 25.9415 132.201 26.4861 132.524C27.0142 132.844 27.4576 133.287 27.8164 133.856C28.2264 134.505 28.4629 135.172 28.5258 135.856C28.5786 136.546 28.4322 137.214 28.0866 137.857C27.7346 138.491 27.173 139.052 26.4019 139.539L21.5163 142.623L20.6514 141.254L25.3544 138.284C26.1762 137.765 26.6791 137.157 26.8629 136.459C27.0365 135.767 26.8959 135.061 26.441 134.341C25.9733 133.6 25.3767 133.161 24.651 133.023C23.9253 132.885 23.1261 133.092 22.2535 133.643L17.6723 136.535L16.7978 135.15ZM15.259 128.872C14.6261 128.849 14.0567 128.665 13.5508 128.318C13.0398 127.96 12.622 127.434 12.2974 126.738L13.8308 126.022L14.0134 126.414C14.7894 128.078 16.0801 128.489 17.8854 127.647L22.7467 125.38L23.4391 126.864L14.4994 131.033L13.8071 129.549L15.259 128.872ZM12.6636 113.111C12.9608 113.016 13.2806 112.932 13.623 112.861L16.024 120.37C16.9316 120.017 17.5569 119.471 17.8999 118.731C18.2279 117.984 18.2603 117.199 17.9972 116.376C17.7816 115.701 17.4482 115.19 16.9971 114.843C16.5309 114.488 16.0056 114.304 15.4214 114.289L14.8842 112.609C15.8675 112.571 16.7656 112.839 17.5783 113.41C18.3795 113.986 18.9592 114.833 19.3174 115.953C19.6024 116.845 19.6582 117.709 19.4847 118.546C19.3076 119.371 18.9172 120.1 18.3136 120.734C17.6986 121.372 16.9053 121.846 15.9337 122.157C14.9622 122.467 14.0485 122.545 13.1927 122.39C12.337 122.236 11.6033 121.872 10.9918 121.299C10.3651 120.718 9.90564 119.97 9.61329 119.056C9.32824 118.165 9.27039 117.314 9.43975 116.504C9.6091 115.694 9.9782 114.996 10.5471 114.411C11.1008 113.818 11.8063 113.385 12.6636 113.111ZM12.8531 114.827C12.2588 115.017 11.7921 115.311 11.4533 115.709C11.103 116.111 10.8924 116.575 10.8214 117.101C10.7353 117.62 10.78 118.154 10.9554 118.703C11.2075 119.491 11.6746 120.085 12.3566 120.484C13.0349 120.872 13.8327 120.964 14.7498 120.759L12.8531 114.827ZM16.6208 105.245C16.7462 105.991 16.7344 106.68 16.5854 107.314C16.4246 107.949 16.1482 108.476 15.7562 108.895C15.3524 109.316 14.8577 109.594 14.272 109.729L13.9913 108.06C14.4686 107.931 14.8272 107.64 15.0672 107.186C15.3052 106.72 15.3685 106.155 15.257 105.493C15.1535 104.877 14.9358 104.415 14.604 104.106C14.2721 103.797 13.899 103.677 13.4849 103.746C13.0588 103.818 12.7771 104.06 12.6396 104.473C12.4903 104.887 12.3817 105.508 12.3139 106.334C12.246 107.088 12.1561 107.712 12.0444 108.205C11.9189 108.689 11.6946 109.128 11.3717 109.523C11.0349 109.908 10.5529 110.153 9.92571 110.259C9.42869 110.343 8.94821 110.271 8.48427 110.045C8.02033 109.819 7.62424 109.453 7.29601 108.949C6.95595 108.446 6.7272 107.846 6.60978 107.148C6.42866 106.071 6.55455 105.155 6.98745 104.401C7.42035 103.647 8.10617 103.166 9.04491 102.96L9.31659 104.575C8.81371 104.696 8.44027 104.972 8.19628 105.402C7.9503 105.821 7.88005 106.344 7.98554 106.971C8.08306 107.551 8.28494 107.992 8.59117 108.293C8.89739 108.594 9.25168 108.711 9.65403 108.644C9.97354 108.59 10.2229 108.445 10.4021 108.208C10.5674 107.961 10.6893 107.672 10.7677 107.343C10.8323 107.003 10.8948 106.543 10.9551 105.961C11.027 105.231 11.1208 104.631 11.2365 104.161C11.3404 103.693 11.5498 103.275 11.8649 102.905C12.178 102.524 12.6295 102.278 13.2192 102.167C13.7517 102.077 14.2558 102.144 14.7316 102.369C15.2074 102.593 15.6153 102.956 15.9553 103.459C16.2816 103.951 16.5034 104.547 16.6208 105.245Z" fill="white"/>
</svg>
